<?xml version="1.0" encoding="utf-8"?>
<!-- Generator: Adobe Illustrator 16.0.0, SVG Export Plug-In . SVG Version: 6.00 Build 0)  -->
<!DOCTYPE svg PUBLIC "-//W3C//DTD SVG 1.1//EN" "http://www.w3.org/Graphics/SVG/1.1/DTD/svg11.dtd">
<svg version="1.1" id="Capa_1" xmlns="http://www.w3.org/2000/svg" xmlns:xlink="http://www.w3.org/1999/xlink" x="0px" y="0px"
	 width="100px" height="100px" viewBox="0 0 100 100" enable-background="new 0 0 100 100" xml:space="preserve">
<g id="Capa_33" display="none">
</g>
<g id="Capa_31">
	<g>
		<g>
			<g>
				<path d="M73.544,64.654c2.298-1.76,2.731-5.055,0.97-7.352c-1.77-2.305-5.063-2.735-7.359-0.971
					c-2.299,1.766-2.732,5.052-0.963,7.354C67.955,65.984,71.248,66.417,73.544,64.654z"/>
				<path d="M81.012,69.033l-10.143,1.134l-5.639-3.802c0.379-2.834-2.248-5.799-3.83-8.111l1.422,5.137
					c-0.034-0.029-0.064-0.066-0.102-0.095l-2.829-7.079l3.905-11.402l-2.88-1.167l-5.472,11.729
					c-0.215,0.531-0.218,1.126-0.006,1.656l2.349,5.877c-0.001,0.002-0.006,0.002-0.009,0.004l-6.76,3.844l5.79-4.333l-2.184-5.066
					c-0.031-0.077-0.046-0.155-0.069-0.231c-2.935,1.031-6.363,3.014-9.489,5.055c-4.03,2.632-4.023,6.615-3.507,9.122l-7.038,2.218
					l-11.12-7.5L21.036,69.1l4.335,3.736l11.5,4.477l5.97-2.167l-5.914,3.131l-12.111-4.712l-1.636,3.521l12.658,6.803
					c0.371,0.172,0.771,0.26,1.169,0.26c0.447,0,0.893-0.107,1.298-0.323l11.468-6.15l-0.004-0.007
					c0.039-0.02,0.08-0.036,0.119-0.058l12.277-6.979c0.258-0.145,0.492-0.316,0.707-0.502l6.263,4.219
					c0.368,0.25,0.8,0.38,1.239,0.38c0.131,0,0.261-0.012,0.391-0.034l10.791-2.604L81.012,69.033z"/>
			</g>
		</g>
	</g>
</g>
</svg>
