<?xml version="1.0" encoding="utf-8"?>
<!-- Generator: Adobe Illustrator 16.0.0, SVG Export Plug-In . SVG Version: 6.00 Build 0)  -->
<!DOCTYPE svg PUBLIC "-//W3C//DTD SVG 1.1//EN" "http://www.w3.org/Graphics/SVG/1.1/DTD/svg11.dtd">
<svg version="1.1" id="Capa_1" xmlns="http://www.w3.org/2000/svg" xmlns:xlink="http://www.w3.org/1999/xlink" x="0px" y="0px"
	 width="100px" height="100px" viewBox="0 0 100 100" enable-background="new 0 0 100 100" xml:space="preserve">
<g id="Capa_33" display="none">
</g>
<g id="Capa_31">
	<g>
		<path d="M54.525,26.822l-2.354-0.918l-2.434,3.727l-7.043-3.812l3.826-14.344l-3.586-1.4l-5.268,13.49l-5.74-1.572l-0.351,0.898
			c-0.62-0.021-1.334-0.004-1.407,0.184c-0.073,0.186,0.441,0.685,0.91,1.089l-0.33,0.844l5.288,2.734l-5.27,13.491l3.586,1.4
			l6.91-13.14l7.762,1.97l-0.735,4.391l2.352,0.918l1.74-4.457l1.092,0.278l0.304-0.776l-0.991-0.536L54.525,26.822z"/>
		<g>
			<g>
				<path d="M73.544,64.654c2.298-1.76,2.731-5.055,0.97-7.352c-1.77-2.305-5.063-2.735-7.359-0.971
					c-2.299,1.766-2.732,5.052-0.963,7.354C67.955,65.984,71.248,66.417,73.544,64.654z"/>
				<path d="M81.012,69.033l-10.143,1.134l-5.639-3.802c0.379-2.834-2.248-5.799-3.83-8.111l1.422,5.137
					c-0.034-0.029-0.064-0.066-0.102-0.095l-2.829-7.079l3.905-11.402l-2.88-1.167l-5.472,11.729
					c-0.215,0.531-0.218,1.126-0.006,1.656l2.349,5.877c-0.001,0.002-0.006,0.002-0.009,0.004l-6.76,3.844l5.79-4.333l-2.184-5.066
					c-0.031-0.077-0.046-0.155-0.069-0.231c-2.935,1.031-6.363,3.014-9.489,5.055c-4.03,2.632-4.023,6.615-3.507,9.122l-7.038,2.218
					l-11.12-7.5L21.036,69.1l4.335,3.736l11.5,4.477l5.97-2.167l-5.914,3.131l-12.111-4.712l-1.636,3.521l12.658,6.803
					c0.371,0.172,0.771,0.26,1.169,0.26c0.447,0,0.893-0.107,1.298-0.323l11.468-6.15l-0.004-0.007
					c0.039-0.02,0.08-0.036,0.119-0.058l12.277-6.979c0.258-0.145,0.492-0.316,0.707-0.502l6.263,4.219
					c0.368,0.25,0.8,0.38,1.239,0.38c0.131,0,0.261-0.012,0.391-0.034l10.791-2.604L81.012,69.033z"/>
			</g>
			<path d="M48.604,44.213c0.238,0.559,0.521,1.106,0.728,1.686c0.222,0.572,0.449,1.142,0.619,1.718
				c0.193,0.571,0.36,1.137,0.485,1.694c0.067,0.276,0.137,0.548,0.202,0.815c0.048,0.269,0.094,0.533,0.139,0.789
				c0.09,0.512,0.184,0.993,0.208,1.445c0.042,0.448,0.077,0.86,0.11,1.225c0,0.363,0.002,0.682,0.002,0.942
				c0.001,0.312,0.002,0.529,0.002,0.667l1.64-1.14c-0.019-0.19-0.038-0.394-0.059-0.62c-0.069-0.386-0.147-0.824-0.232-1.301
				c-0.07-0.479-0.213-0.982-0.354-1.516c-0.071-0.265-0.145-0.539-0.219-0.817c-0.094-0.272-0.191-0.551-0.289-0.835
				c-0.182-0.57-0.407-1.144-0.659-1.716c-0.229-0.583-0.514-1.148-0.795-1.715c-0.264-0.574-0.602-1.11-0.895-1.657
				c-0.317-0.533-0.639-1.05-0.959-1.544c-0.656-0.979-1.299-1.867-1.894-2.595c-1.17-1.47-2.076-2.331-2.076-2.331
				s0.827,0.938,1.855,2.493c0.523,0.771,1.08,1.704,1.638,2.718C48.073,43.134,48.342,43.668,48.604,44.213z"/>
			<path d="M47.381,54.818c0.041,0.447,0.078,0.857,0.111,1.225c0,0.363,0.001,0.681,0.001,0.942
				c0.001,0.354,0.001,0.591,0.001,0.717l1.643-1.142c-0.019-0.204-0.039-0.422-0.062-0.667c-0.069-0.388-0.147-0.825-0.232-1.301
				c-0.07-0.479-0.215-0.982-0.356-1.515c-0.07-0.266-0.144-0.54-0.218-0.818c-0.094-0.272-0.19-0.552-0.288-0.834
				c-0.184-0.572-0.407-1.144-0.661-1.718c-0.229-0.581-0.515-1.148-0.794-1.715c-0.264-0.573-0.603-1.11-0.895-1.656
				c-0.318-0.533-0.639-1.051-0.961-1.544c-0.655-0.979-1.298-1.867-1.893-2.595c-1.169-1.468-2.076-2.331-2.076-2.331
				s0.826,0.938,1.854,2.494c0.524,0.77,1.081,1.703,1.638,2.718c0.273,0.511,0.542,1.046,0.805,1.592
				c0.238,0.558,0.521,1.105,0.727,1.686c0.222,0.572,0.45,1.142,0.62,1.719c0.193,0.571,0.36,1.137,0.485,1.695
				c0.069,0.275,0.136,0.547,0.202,0.813c0.048,0.269,0.093,0.534,0.139,0.789C47.263,53.885,47.356,54.366,47.381,54.818z"/>
		</g>
	</g>
</g>
</svg>
